<svg width="35" height="34" viewBox="0 0 35 34" fill="none" xmlns="http://www.w3.org/2000/svg">
<g clip-path="url(#clip0_21_44)">
<path d="M17.2609 3.06283C21.7999 3.06283 22.3382 3.07983 24.1303 3.162C25.9833 3.247 27.8915 3.66917 29.2416 5.01925C30.6044 6.38208 31.0139 8.27192 31.0989 10.1306C31.181 11.9227 31.198 12.461 31.198 17C31.198 21.539 31.181 22.0773 31.0989 23.8694C31.0153 25.7125 30.5832 27.6392 29.2416 28.9808C27.8788 30.3436 25.9904 30.753 24.1303 30.838C22.3382 30.9202 21.7999 30.9372 17.2609 30.9372C12.7219 30.9372 12.1835 30.9202 10.3914 30.838C8.56253 30.7544 6.61036 30.3124 5.28011 28.9808C3.92436 27.625 3.50786 25.7168 3.42286 23.8694C3.3407 22.0773 3.3237 21.539 3.3237 17C3.3237 12.461 3.3407 11.9227 3.42286 10.1306C3.50645 8.29458 3.94278 6.35658 5.28011 5.01925C6.64011 3.65925 8.53703 3.247 10.3914 3.162C12.1835 3.07983 12.7219 3.06283 17.2609 3.06283ZM17.2609 0C12.6439 0 12.0645 0.0198333 10.2512 0.102C7.62328 0.222417 5.01378 0.953417 3.11403 2.85317C1.2072 4.76 0.483281 7.36383 0.362864 9.99033C0.280698 11.8037 0.260864 12.3831 0.260864 17C0.260864 21.6169 0.280698 22.1963 0.362864 24.0097C0.483281 26.6347 1.21711 29.2513 3.11403 31.1468C5.01945 33.0522 7.62753 33.7776 10.2512 33.898C12.0645 33.9802 12.6439 34 17.2609 34C21.8778 34 22.4572 33.9802 24.2705 33.898C26.897 33.7776 29.5094 33.0452 31.4077 31.1468C33.3159 29.2386 34.0384 26.6362 34.1589 24.0097C34.241 22.1963 34.2609 21.6169 34.2609 17C34.2609 12.3831 34.241 11.8037 34.1589 9.99033C34.0384 7.36242 33.306 4.7515 31.4077 2.85317C29.5051 0.950583 26.8899 0.221 24.2705 0.102C22.4572 0.0198333 21.8778 0 17.2609 0Z" fill="black"/>
<path d="M17.2609 8.27051C12.44 8.27051 8.53137 12.1791 8.53137 17C8.53137 21.8209 12.44 25.7295 17.2609 25.7295C22.0818 25.7295 25.9904 21.8209 25.9904 17C25.9904 12.1791 22.0818 8.27051 17.2609 8.27051ZM17.2609 22.6667C14.1315 22.6667 11.5942 20.1294 11.5942 17C11.5942 13.8706 14.1315 11.3333 17.2609 11.3333C20.3903 11.3333 22.9275 13.8706 22.9275 17C22.9275 20.1294 20.3903 22.6667 17.2609 22.6667Z" fill="black"/>
<path d="M26.336 9.96483C27.4627 9.96483 28.376 9.05149 28.376 7.92483C28.376 6.79817 27.4627 5.88483 26.336 5.88483C25.2094 5.88483 24.296 6.79817 24.296 7.92483C24.296 9.05149 25.2094 9.96483 26.336 9.96483Z" fill="black"/>
</g>
<defs>
<clipPath id="clip0_21_44">
<rect width="34" height="34" fill="white" transform="translate(0.260864)"/>
</clipPath>
</defs>
</svg>
