<svg width="34" height="34" viewBox="0 0 34 34" fill="none" xmlns="http://www.w3.org/2000/svg">
<mask id="path-1-inside-1_21_42" fill="white">
<path d="M33.447 16.7235C33.447 25.0699 27.3234 31.9893 19.3296 33.2449V21.59H23.2164L23.9564 16.7681H19.3296V13.6394C19.3296 12.3196 19.9762 11.0347 22.0471 11.0347H24.1501V6.9291C24.1501 6.9291 22.2408 6.60299 20.4166 6.60299C16.6064 6.60299 14.1174 8.91223 14.1174 13.0917V16.7667H9.88219V21.5886H14.1174V33.2435C6.12498 31.9865 0 25.0685 0 16.7235C0 7.48794 7.48794 0 16.7235 0C25.959 0 33.447 7.48655 33.447 16.7235Z"/>
</mask>
<path d="M33.447 16.7235C33.447 25.0699 27.3234 31.9893 19.3296 33.2449V21.59H23.2164L23.9564 16.7681H19.3296V13.6394C19.3296 12.3196 19.9762 11.0347 22.0471 11.0347H24.1501V6.9291C24.1501 6.9291 22.2408 6.60299 20.4166 6.60299C16.6064 6.60299 14.1174 8.91223 14.1174 13.0917V16.7667H9.88219V21.5886H14.1174V33.2435C6.12498 31.9865 0 25.0685 0 16.7235C0 7.48794 7.48794 0 16.7235 0C25.959 0 33.447 7.48655 33.447 16.7235Z" fill="black"/>
<path d="M19.3296 33.2449H-2.00377V58.1908L22.64 54.3198L19.3296 33.2449ZM19.3296 21.59V0.256693H-2.00377V21.59H19.3296ZM23.2164 21.59V42.9234H41.5255L44.3028 24.8261L23.2164 21.59ZM23.9564 16.7681L45.0429 20.0042L48.8135 -4.56525H23.9564V16.7681ZM19.3296 16.7681H-2.00377V38.1014H19.3296V16.7681ZM24.1501 11.0347V32.3681H45.4834V11.0347H24.1501ZM24.1501 6.9291H45.4834V-11.0694L27.7419 -14.0997L24.1501 6.9291ZM14.1174 16.7667V38.1H35.4507V16.7667H14.1174ZM9.88219 16.7667V-4.56664H-11.4511V16.7667H9.88219ZM9.88219 21.5886H-11.4511V42.922H9.88219V21.5886ZM14.1174 21.5886H35.4507V0.2553H14.1174V21.5886ZM14.1174 33.2435L10.8029 54.3178L35.4507 58.1944V33.2435H14.1174ZM12.1136 16.7235C12.1136 14.3874 13.8135 12.5164 16.0192 12.17L22.64 54.3198C40.8333 51.4621 54.7803 35.7524 54.7803 16.7235H12.1136ZM40.6629 33.2449V21.59H-2.00377V33.2449H40.6629ZM19.3296 42.9234H23.2164V0.256693H19.3296V42.9234ZM44.3028 24.8261L45.0429 20.0042L2.86994 13.532L2.12993 18.3539L44.3028 24.8261ZM23.9564 -4.56525H19.3296V38.1014H23.9564V-4.56525ZM40.6629 16.7681V13.6394H-2.00377V16.7681H40.6629ZM40.6629 13.6394C40.6629 16.0816 40.1007 21.1112 36.047 25.7979C31.4942 31.0618 25.6438 32.3681 22.0471 32.3681V-10.2986C16.3795 -10.2986 9.17034 -8.34987 3.77647 -2.11363C-1.11822 3.54547 -2.00377 9.87744 -2.00377 13.6394H40.6629ZM22.0471 32.3681H24.1501V-10.2986H22.0471V32.3681ZM45.4834 11.0347V6.9291H2.81678V11.0347H45.4834ZM24.1501 6.9291C27.7419 -14.0997 27.7403 -14.1 27.7386 -14.1003C27.7381 -14.1004 27.7364 -14.1006 27.7353 -14.1008C27.733 -14.1012 27.7308 -14.1016 27.7285 -14.102C27.7239 -14.1028 27.7191 -14.1036 27.7142 -14.1044C27.7045 -14.1061 27.6942 -14.1078 27.6834 -14.1096C27.6617 -14.1133 27.638 -14.1172 27.6121 -14.1215C27.5605 -14.13 27.5005 -14.1398 27.4327 -14.1507C27.2974 -14.1723 27.1293 -14.1984 26.933 -14.2273C26.5439 -14.2846 26.0253 -14.3559 25.4169 -14.4262C24.2922 -14.5562 22.4657 -14.7303 20.4166 -14.7303V27.9363C20.1917 27.9363 20.232 27.9252 20.518 27.9583C20.615 27.9695 20.6876 27.9798 20.7136 27.9836C20.7248 27.9853 20.7201 27.9847 20.6963 27.9808C20.6842 27.9789 20.6671 27.9761 20.6443 27.9724C20.6329 27.9705 20.6201 27.9683 20.6058 27.9659C20.5986 27.9647 20.5911 27.9635 20.5832 27.9621C20.5793 27.9615 20.5752 27.9608 20.5711 27.9601C20.569 27.9597 20.5669 27.9594 20.5648 27.959C20.5637 27.9588 20.5621 27.9585 20.5616 27.9584C20.56 27.9582 20.5583 27.9579 24.1501 6.9291ZM20.4166 -14.7303C14.2008 -14.7303 6.70817 -12.7664 0.744878 -6.79653C-5.23937 -0.805633 -7.21592 6.7462 -7.21592 13.0917H35.4507C35.4507 15.2577 34.7187 19.5652 30.9315 23.3566C27.1653 27.127 22.8223 27.9363 20.4166 27.9363V-14.7303ZM-7.21592 13.0917V16.7667H35.4507V13.0917H-7.21592ZM14.1174 -4.56664H9.88219V38.1H14.1174V-4.56664ZM-11.4511 16.7667V21.5886H31.2155V16.7667H-11.4511ZM9.88219 42.922H14.1174V0.2553H9.88219V42.922ZM-7.21592 21.5886V33.2435H35.4507V21.5886H-7.21592ZM17.432 12.1692C19.63 12.515 21.3333 14.3805 21.3333 16.7235H-21.3333C-21.3333 35.7565 -7.38009 51.458 10.8029 54.3178L17.432 12.1692ZM21.3333 16.7235C21.3333 19.27 19.27 21.3333 16.7235 21.3333V-21.3333C-4.29413 -21.3333 -21.3333 -4.29413 -21.3333 16.7235H21.3333ZM16.7235 21.3333C14.1781 21.3333 12.1136 19.2698 12.1136 16.7235H54.7803C54.7803 -4.29668 37.74 -21.3333 16.7235 -21.3333V21.3333Z" fill="black" mask="url(#path-1-inside-1_21_42)"/>
</svg>
